<svg id="visual" viewBox="0 0 480 1080" width="480" height="1080" xmlns="http://www.w3.org/2000/svg" xmlns:xlink="http://www.w3.org/1999/xlink" version="1.1"><path d="M402 0L391.7 36C381.3 72 360.7 144 357.5 216C354.3 288 368.7 360 380 432C391.3 504 399.7 576 392.8 648C386 720 364 792 353.2 864C342.3 936 342.7 1008 342.8 1044L343 1080L0 1080L0 1044C0 1008 0 936 0 864C0 792 0 720 0 648C0 576 0 504 0 432C0 360 0 288 0 216C0 144 0 72 0 36L0 0Z" fill="#63ccca"></path><path d="M268 0L266.8 36C265.7 72 263.3 144 271.8 216C280.3 288 299.7 360 304.2 432C308.7 504 298.3 576 299.7 648C301 720 314 792 315.3 864C316.7 936 306.3 1008 301.2 1044L296 1080L0 1080L0 1044C0 1008 0 936 0 864C0 792 0 720 0 648C0 576 0 504 0 432C0 360 0 288 0 216C0 144 0 72 0 36L0 0Z" fill="#5ababb"></path><path d="M260 0L251 36C242 72 224 144 217.8 216C211.7 288 217.3 360 223.3 432C229.3 504 235.7 576 236.5 648C237.3 720 232.7 792 232.8 864C233 936 238 1008 240.5 1044L243 1080L0 1080L0 1044C0 1008 0 936 0 864C0 792 0 720 0 648C0 576 0 504 0 432C0 360 0 288 0 216C0 144 0 72 0 36L0 0Z" fill="#51a8ac"></path><path d="M128 0L128.2 36C128.3 72 128.7 144 134.2 216C139.7 288 150.3 360 151.7 432C153 504 145 576 147.2 648C149.3 720 161.7 792 161 864C160.3 936 146.7 1008 139.8 1044L133 1080L0 1080L0 1044C0 1008 0 936 0 864C0 792 0 720 0 648C0 576 0 504 0 432C0 360 0 288 0 216C0 144 0 72 0 36L0 0Z" fill="#49969c"></path><path d="M78 0L83.7 36C89.3 72 100.7 144 96.3 216C92 288 72 360 70.2 432C68.3 504 84.7 576 93.2 648C101.7 720 102.3 792 100.3 864C98.3 936 93.7 1008 91.3 1044L89 1080L0 1080L0 1044C0 1008 0 936 0 864C0 792 0 720 0 648C0 576 0 504 0 432C0 360 0 288 0 216C0 144 0 72 0 36L0 0Z" fill="#42858c"></path></svg>