<svg id="visual" viewBox="0 0 480 1080" width="480" height="1080" xmlns="http://www.w3.org/2000/svg" xmlns:xlink="http://www.w3.org/1999/xlink" version="1.1"><path d="M154 1080L151.8 1044C149.7 1008 145.3 936 134.8 864C124.3 792 107.7 720 96 648C84.3 576 77.7 504 87.3 432C97 360 123 288 127.8 216C132.7 144 116.3 72 108.2 36L100 0L480 0L480 36C480 72 480 144 480 216C480 288 480 360 480 432C480 504 480 576 480 648C480 720 480 792 480 864C480 936 480 1008 480 1044L480 1080Z" fill="#63ccca"></path><path d="M166 1080L175.2 1044C184.3 1008 202.7 936 204.8 864C207 792 193 720 188.3 648C183.7 576 188.3 504 190.7 432C193 360 193 288 193.2 216C193.3 144 193.7 72 193.8 36L194 0L480 0L480 36C480 72 480 144 480 216C480 288 480 360 480 432C480 504 480 576 480 648C480 720 480 792 480 864C480 936 480 1008 480 1044L480 1080Z" fill="#5ababb"></path><path d="M271 1080L270.8 1044C270.7 1008 270.3 936 265.3 864C260.3 792 250.7 720 251.2 648C251.7 576 262.3 504 268 432C273.7 360 274.3 288 277.3 216C280.3 144 285.7 72 288.3 36L291 0L480 0L480 36C480 72 480 144 480 216C480 288 480 360 480 432C480 504 480 576 480 648C480 720 480 792 480 864C480 936 480 1008 480 1044L480 1080Z" fill="#51a8ac"></path><path d="M358 1080L347.8 1044C337.7 1008 317.3 936 308.7 864C300 792 303 720 308.5 648C314 576 322 504 330.8 432C339.7 360 349.3 288 354.5 216C359.7 144 360.3 72 360.7 36L361 0L480 0L480 36C480 72 480 144 480 216C480 288 480 360 480 432C480 504 480 576 480 648C480 720 480 792 480 864C480 936 480 1008 480 1044L480 1080Z" fill="#49969c"></path><path d="M385 1080L390 1044C395 1008 405 936 404.8 864C404.7 792 394.3 720 387.2 648C380 576 376 504 384 432C392 360 412 288 422 216C432 144 432 72 432 36L432 0L480 0L480 36C480 72 480 144 480 216C480 288 480 360 480 432C480 504 480 576 480 648C480 720 480 792 480 864C480 936 480 1008 480 1044L480 1080Z" fill="#42858c"></path></svg>